<svg width="72" height="72" viewBox="0 0 72 72" fill="none" xmlns="http://www.w3.org/2000/svg">
<rect width="72" height="72" fill="white"/>
<rect width="72" height="72" fill="#e2b043"/>
<path d="M48.9694 57.6176H23.0283C19.4462 57.6176 16.543 54.7144 16.543 51.1323V33.8382C16.543 30.2562 19.4462 27.3529 23.0283 27.3529H48.9694C52.5515 27.3529 55.4547 30.2562 55.4547 33.8382V51.1323C55.4547 54.7144 52.5515 57.6176 48.9694 57.6176Z" fill="white"/>
<path opacity="0.6" d="M27.3509 27.3529C27.3509 22.5776 31.2226 18.7059 35.9979 18.7059C40.7733 18.7059 44.645 22.5776 44.645 27.3529H48.9685C48.9685 20.1888 43.162 14.3823 35.9979 14.3823C28.8338 14.3823 23.0273 20.1888 23.0273 27.3529H27.3509Z" fill="white"/>
<path d="M35.9993 38.1617C33.6106 38.1617 31.6758 40.0965 31.6758 42.4853C31.6758 44.874 33.6106 46.8088 35.9993 46.8088C38.3881 46.8088 40.3228 44.874 40.3228 42.4853C40.3228 40.0965 38.3881 38.1617 35.9993 38.1617Z" fill="#d1cbb6" fill-opacity="0.8"/>
</svg>
