<svg width="80" height="80" viewBox="0 0 80 80" fill="none" xmlns="http://www.w3.org/2000/svg">
    <rect width="80" height="80" fill="#e2b043"/>
    <path opacity="0.35"
          d="M55.5551 23.333H24.444C20.7618 23.333 17.7773 26.3175 17.7773 29.9997V41.1108C17.7773 44.793 20.7618 47.7775 24.444 47.7775H55.5551C59.2373 47.7775 62.2218 44.793 62.2218 41.1108V29.9997C62.2218 26.3175 59.2373 23.333 55.5551 23.333Z"
          fill="white"/>
    <path d="M39.9993 42.2218C41.8403 42.2218 43.3327 40.7295 43.3327 38.8885C43.3327 37.0476 41.8403 35.5552 39.9993 35.5552C38.1584 35.5552 36.666 37.0476 36.666 38.8885C36.666 40.7295 38.1584 42.2218 39.9993 42.2218Z"
          fill="white"/>
    <path d="M55.5551 47.7775H24.444C20.7618 47.7775 17.7773 44.7931 17.7773 41.1108V54.4442C17.7773 58.1264 20.7618 61.1108 24.444 61.1108H55.5551C59.2373 61.1108 62.2218 58.1264 62.2218 54.4442V41.1108C62.2218 44.7931 59.2373 47.7775 55.5551 47.7775Z"
          fill="white"/>
    <path d="M42.2209 18.8887C41.4076 18.8887 38.5898 18.8887 37.7765 18.8887C35.3209 18.8887 33.332 20.8776 33.332 23.3331H46.6654C46.6654 20.8776 44.6765 18.8887 42.2209 18.8887Z"
          fill="white"/>
</svg>
